<svg width="21" height="22" viewBox="0 0 21 22" fill="none" xmlns="http://www.w3.org/2000/svg">
<path d="M7.85083 1.43747C9.20055 0.365137 11.0923 0.322626 12.4834 1.30994L12.6546 1.43747L19.1258 6.61423C19.8378 7.16581 20.2746 7.98521 20.349 8.87687L20.3596 9.09049V17.7085C20.3596 19.9297 18.605 21.7364 16.4061 21.8533H14.2912C13.2805 21.8331 12.4633 21.0467 12.3889 20.0583L12.3782 19.9084V16.87C12.3782 16.5395 12.1327 16.2642 11.8043 16.21L11.7087 16.1994H8.87003C8.531 16.21 8.25468 16.4544 8.21217 16.7733L8.20154 16.87V19.8989C8.20154 19.9616 8.18985 20.036 8.18029 20.0891L8.16966 20.1114L8.15797 20.1848C8.0315 21.0892 7.28756 21.7789 6.36295 21.8437L6.22479 21.8533H4.32243C2.10124 21.8533 0.283897 20.1114 0.166992 17.9211L0.166992 9.09049C0.176557 8.18607 0.570845 7.34648 1.22976 6.76196L7.85083 1.43747ZM11.7299 2.59589C10.9222 1.9476 9.77445 1.91678 8.92423 2.47899L8.76375 2.59589L2.3021 7.80454C1.93119 8.07979 1.70801 8.49427 1.65487 8.93001L1.64318 9.10005L1.64318 17.7085C1.64318 19.122 2.74846 20.2804 4.15238 20.3654H6.22479C6.4586 20.3654 6.66052 20.2071 6.69135 19.9839L6.71366 19.7926L6.72429 19.7384V16.87C6.72429 15.7328 7.59576 14.8082 8.71167 14.7221H11.7087C12.8448 14.7221 13.7694 15.5946 13.8555 16.7106V19.9084C13.8555 20.1316 14.0149 20.324 14.2275 20.3654H16.2031C17.6273 20.3654 18.7857 19.2718 18.8707 17.8785L18.8824 17.7085V9.10005C18.8707 8.64413 18.6805 8.21795 18.351 7.90019L18.2128 7.78222L11.7299 2.59589Z" fill="white"/>
</svg>
