<svg width="61" height="54" viewBox="0 0 61 54" fill="none" xmlns="http://www.w3.org/2000/svg">
    <defs>
        <linearGradient id="paint0_linear_125_16767" x1="30.2627" y1="10.8931" x2="30.2627" y2="41.2688" gradientUnits="userSpaceOnUse">
        <stop stop-color="#65B0F6"/>
        <stop offset="1" stop-color="#65B0F6"/>
        </linearGradient>
        </defs>
<rect opacity="0.26" x="0.505859" y="0.0217285" width="59.5152" height="53.717" rx="12.7533" fill="#65B0F6"/>
<path d="M42.6617 10.8931L17.8637 10.8931C14.934 10.8931 12.5498 13.045 12.5498 15.6892V20.2152C12.5498 21.8987 13.2264 23.4287 14.3211 24.6053L14.3211 39.6701C14.3211 40.0941 14.5077 40.5007 14.8399 40.8005C15.1721 41.1003 15.6226 41.2688 16.0924 41.2688H30.2627C30.7324 41.2688 31.183 41.1003 31.5151 40.8005C31.8473 40.5007 32.0339 40.0941 32.0339 39.6701V31.6765H39.1191V39.6701C39.1191 40.0941 39.3057 40.5007 39.6379 40.8005C39.9701 41.1003 40.4206 41.2688 40.8904 41.2688H44.4329C44.9027 41.2688 45.3533 41.1003 45.6854 40.8005C46.0176 40.5007 46.2042 40.0941 46.2042 39.6701V24.6037C47.2989 23.4287 47.9755 21.8987 47.9755 20.2136V15.6892C47.9755 13.045 45.5914 10.8931 42.6617 10.8931ZM44.4329 15.6892V20.2152C44.4329 22.0378 42.9291 23.5917 41.0834 23.6797L40.8904 23.6828C38.9366 23.6828 37.3478 22.2488 37.3478 20.4854V14.0905H42.6617C43.6394 14.0905 44.4329 14.8083 44.4329 15.6892ZM26.7201 20.4854V14.0905L33.8052 14.0905V20.4854C33.8052 22.2488 32.2164 23.6828 30.2627 23.6828C28.3089 23.6828 26.7201 22.2488 26.7201 20.4854ZM16.0924 15.6892C16.0924 14.8083 16.8859 14.0905 17.8637 14.0905H23.1775V20.4854C23.1775 22.2488 21.5887 23.6828 19.6349 23.6828L19.4419 23.6781C17.5962 23.5917 16.0924 22.0378 16.0924 20.2152V15.6892ZM26.7201 33.2752H19.6349V28.479H26.7201V33.2752Z" fill="url(#paint0_linear_125_16767)"/>

</svg>
