<svg width="18" height="21" viewBox="0 0 18 21" fill="none" xmlns="http://www.w3.org/2000/svg">
<path d="M15.1572 15.3819L13.9702 16.5558C13.0954 17.4144 11.9602 18.5184 10.5644 19.8679C9.69215 20.7113 8.30835 20.7112 7.43625 19.8677L3.94515 16.4718C3.50639 16.041 3.13912 15.6777 2.84328 15.3819C-0.557134 11.9815 -0.557134 6.4683 2.84328 3.06789C6.24369 -0.332524 11.7568 -0.332524 15.1572 3.06789C18.5576 6.4683 18.5576 11.9815 15.1572 15.3819ZM11.5004 9.4996C11.5004 8.11875 10.381 6.99936 9.00025 6.99936C7.61945 6.99936 6.50007 8.11875 6.50007 9.4996C6.50007 10.8804 7.61945 11.9998 9.00025 11.9998C10.381 11.9998 11.5004 10.8804 11.5004 9.4996Z" fill="white"/>
</svg>
