<svg width="56" height="59" viewBox="0 0 56 59" fill="none" xmlns="http://www.w3.org/2000/svg">
<rect width="55.1016" height="58.0087" rx="8.50217" fill="#1F1D2B"/>
<path opacity="0.7" d="M18.1755 39.8328L18.8826 39.1257L18.1755 39.8328ZM36.8323 39.8328L36.1252 39.1257L36.8323 39.8328ZM36.8323 18.1759L36.1252 18.883L36.8323 18.1759ZM25.0039 18.0043H30.0039V16.0043H25.0039V18.0043ZM37.0039 25.0043V33.0043H39.0039V25.0043H37.0039ZM30.0039 40.0043H25.0039V42.0043H30.0039V40.0043ZM18.0039 33.0043V25.0043H16.0039V33.0043H18.0039ZM25.0039 40.0043C23.09 40.0043 21.7552 40.0022 20.7481 39.8668C19.7697 39.7353 19.2516 39.4947 18.8826 39.1257L17.4684 40.5399C18.2709 41.3424 19.2814 41.6876 20.4816 41.849C21.6529 42.0065 23.1466 42.0043 25.0039 42.0043V40.0043ZM16.0039 33.0043C16.0039 34.8617 16.0018 36.3553 16.1593 37.5267C16.3206 38.7268 16.6658 39.7373 17.4684 40.5399L18.8826 39.1257C18.5136 38.7566 18.273 38.2385 18.1414 37.2602C18.006 36.253 18.0039 34.9182 18.0039 33.0043H16.0039ZM37.0039 33.0043C37.0039 34.9182 37.0018 36.253 36.8664 37.2602C36.7348 38.2385 36.4942 38.7566 36.1252 39.1257L37.5394 40.5399C38.342 39.7373 38.6872 38.7268 38.8485 37.5267C39.006 36.3553 39.0039 34.8617 39.0039 33.0043H37.0039ZM30.0039 42.0043C31.8613 42.0043 33.3549 42.0065 34.5262 41.849C35.7264 41.6876 36.7369 41.3424 37.5394 40.5399L36.1252 39.1257C35.7562 39.4947 35.2381 39.7353 34.2597 39.8668C33.2526 40.0022 31.9178 40.0043 30.0039 40.0043V42.0043ZM30.0039 18.0043C31.9178 18.0043 33.2526 18.0065 34.2597 18.1419C35.2381 18.2734 35.7562 18.514 36.1252 18.883L37.5394 17.4688C36.7369 16.6662 35.7264 16.3211 34.5262 16.1597C33.3549 16.0022 31.8613 16.0043 30.0039 16.0043V18.0043ZM39.0039 25.0043C39.0039 23.147 39.006 21.6534 38.8485 20.482C38.6872 19.2819 38.342 18.2714 37.5394 17.4688L36.1252 18.883C36.4942 19.252 36.7348 19.7701 36.8664 20.7485C37.0018 21.7556 37.0039 23.0904 37.0039 25.0043H39.0039ZM25.0039 16.0043C23.1466 16.0043 21.6529 16.0022 20.4816 16.1597C19.2814 16.3211 18.2709 16.6662 17.4684 17.4688L18.8826 18.883C19.2516 18.514 19.7697 18.2734 20.7481 18.1419C21.7552 18.0065 23.09 18.0043 25.0039 18.0043V16.0043ZM18.0039 25.0043C18.0039 23.0904 18.006 21.7556 18.1414 20.7485C18.273 19.7701 18.5136 19.252 18.8826 18.883L17.4684 17.4688C16.6658 18.2714 16.3206 19.2819 16.1593 20.482C16.0018 21.6534 16.0039 23.147 16.0039 25.0043H18.0039Z" fill="#65B0F6"/>
<path d="M27.5039 28.8893L26.723 28.2647L26.2233 28.8893L26.723 29.514L27.5039 28.8893ZM38.0968 29.8893C38.6491 29.8893 39.0968 29.4416 39.0968 28.8893C39.0968 28.3371 38.6491 27.8893 38.0968 27.8893V29.8893ZM31.431 22.3796L26.723 28.2647L28.2848 29.514L32.9927 23.629L31.431 22.3796ZM26.723 29.514L31.431 35.399L32.9927 34.1497L28.2848 28.2647L26.723 29.514ZM27.5039 29.8893H38.0968V27.8893H27.5039V29.8893Z" fill="#65B0F6"/>
</svg>
