<svg width="79" height="80" viewBox="0 0 79 80" fill="none" xmlns="http://www.w3.org/2000/svg">
    <defs>
 
        <clipPath id="clip0_1_14852">
        <rect width="50.5939" height="51.0179" fill="white" transform="translate(14.1191 10.2036)"/>
        </clipPath>
        </defs>
<g filter="url(#filter0_d_1_14852)">
<rect opacity="0.26" x="4" width="70.8315" height="71.425" rx="12.7533" fill="white"/>
<g clip-path="url(#clip0_1_14852)">
<path d="M54.0434 10.635H24.5303C21.0435 10.635 18.2061 13.4963 18.2061 17.0123V23.0302C18.2061 25.2687 19.0113 27.303 20.3141 28.8675V48.8984C20.3141 49.4622 20.5362 50.0029 20.9316 50.4016C21.3269 50.8002 21.8631 51.0242 22.4222 51.0242H39.2868C39.8459 51.0242 40.3821 50.8002 40.7775 50.4016C41.1728 50.0029 41.3949 49.4622 41.3949 48.8984V38.2697H49.8272V48.8984C49.8272 49.4622 50.0493 50.0029 50.4447 50.4016C50.84 50.8002 51.3762 51.0242 51.9353 51.0242H56.1515C56.7106 51.0242 57.2468 50.8002 57.6421 50.4016C58.0375 50.0029 58.2596 49.4622 58.2596 48.8984V28.8654C59.5624 27.303 60.3676 25.2687 60.3676 23.0281V17.0123C60.3676 13.4963 57.5302 10.635 54.0434 10.635ZM56.1515 17.0123V23.0302C56.1515 25.4536 54.3617 27.5198 52.1651 27.6367L51.9353 27.641C49.6101 27.641 47.7192 25.7342 47.7192 23.3895V14.8865H54.0434C55.2071 14.8865 56.1515 15.841 56.1515 17.0123ZM35.0707 23.3895V14.8865H43.503V23.3895C43.503 25.7342 41.6121 27.641 39.2868 27.641C36.9616 27.641 35.0707 25.7342 35.0707 23.3895ZM22.4222 17.0123C22.4222 15.841 23.3666 14.8865 24.5303 14.8865H30.8545V23.3895C30.8545 25.7342 28.9636 27.641 26.6384 27.641L26.4086 27.6346C24.212 27.5198 22.4222 25.4536 22.4222 23.0302V17.0123ZM35.0707 40.3954H26.6384V34.0182H35.0707V40.3954Z" fill="white"/>
</g>
</g>

</svg>
