<svg width="23" height="22" viewBox="0 0 23 22" fill="none" xmlns="http://www.w3.org/2000/svg">
<path fill-rule="evenodd" clip-rule="evenodd" d="M5.17696 10.3181C5.17696 7.3875 7.56023 5.00423 10.4908 5.00423C13.4214 5.00423 15.8047 7.3875 15.8047 10.3181C15.8047 13.2487 13.4214 15.6319 10.4908 15.6319C7.56023 15.6319 5.17696 13.2487 5.17696 10.3181M19.0878 17.6628L16.0811 14.6552C17.0137 13.456 17.576 11.9531 17.576 10.3182C17.576 6.4116 14.3975 3.23303 10.4909 3.23303C6.58433 3.23303 3.40576 6.4116 3.40576 10.3182C3.40576 14.2247 6.58433 17.4033 10.4909 17.4033C12.1258 17.4033 13.6287 16.8409 14.8279 15.9084L17.8355 18.9151C18.0082 19.0878 18.235 19.1746 18.4617 19.1746C18.6884 19.1746 18.9151 19.0878 19.0878 18.9151C19.4341 18.5688 19.4341 18.0091 19.0878 17.6628" fill="white"/>
<mask id="mask0_473_4646" style="mask-type:alpha" maskUnits="userSpaceOnUse" x="3" y="3" width="17" height="17">
<path fill-rule="evenodd" clip-rule="evenodd" d="M5.17696 10.3181C5.17696 7.3875 7.56023 5.00423 10.4908 5.00423C13.4214 5.00423 15.8047 7.3875 15.8047 10.3181C15.8047 13.2487 13.4214 15.6319 10.4908 15.6319C7.56023 15.6319 5.17696 13.2487 5.17696 10.3181M19.0878 17.6628L16.0811 14.6552C17.0137 13.456 17.576 11.9531 17.576 10.3182C17.576 6.4116 14.3975 3.23303 10.4909 3.23303C6.58433 3.23303 3.40576 6.4116 3.40576 10.3182C3.40576 14.2247 6.58433 17.4033 10.4909 17.4033C12.1258 17.4033 13.6287 16.8409 14.8279 15.9084L17.8355 18.9151C18.0082 19.0878 18.235 19.1746 18.4617 19.1746C18.6884 19.1746 18.9151 19.0878 19.0878 18.9151C19.4341 18.5688 19.4341 18.0091 19.0878 17.6628" fill="white"/>
</mask>
<g mask="url(#mask0_473_4646)">
<rect x="0.748779" y="0.57605" width="21.2554" height="21.2554" fill="white"/>
</g>
</svg>
