<svg width="61" height="61" viewBox="0 0 61 61" fill="none" xmlns="http://www.w3.org/2000/svg">
<rect x="0.505859" y="0.872459" width="59.5152" height="59.5152" rx="8.50217" fill="#1F1D2B"/>
<path d="M30.9181 20.0023C31.6716 20.002 32.3932 20.3006 32.9184 20.8299C33.4436 21.3593 33.7278 22.0744 33.7049 22.7418L33.714 22.8988C33.7323 23.0533 33.7837 23.2025 33.867 23.34C34.0292 23.6112 34.2949 23.8079 34.6055 23.8869C34.916 23.9659 35.2458 23.9206 35.5582 23.7416L35.7323 23.6535C37.0395 23.0514 38.6073 23.5299 39.3323 24.7628L39.984 25.8707C40.0011 25.8999 40.0163 25.9301 40.0293 25.961L40.0898 26.0797C40.6726 27.2985 40.258 28.7482 39.1507 29.4847L38.8772 29.653C38.7343 29.7507 38.6151 29.8782 38.5255 30.0315C38.3636 30.3037 38.3192 30.6279 38.402 30.9323C38.4849 31.2367 38.6882 31.4961 38.9965 31.6708L39.174 31.7822C39.7099 32.1495 40.0971 32.6909 40.266 33.3114C40.4566 34.0115 40.3544 34.7571 39.9769 35.3917L39.2759 36.5359L39.1702 36.6973C38.3466 37.8577 36.7474 38.2123 35.5269 37.5221L35.3823 37.4491C35.2314 37.383 35.0686 37.3466 34.9204 37.3426C34.598 37.341 34.2883 37.4659 34.0603 37.6892C33.8323 37.9126 33.7049 38.216 33.7058 38.5687L33.6971 38.7511C33.5791 40.1635 32.3724 41.2578 30.9184 41.2578H29.6055C28.0657 41.2578 26.8174 40.0348 26.819 38.5746L26.81 38.4177C26.7916 38.2631 26.7403 38.1139 26.6528 37.9693C26.494 37.6975 26.2311 37.499 25.9223 37.4181C25.6135 37.3371 25.2845 37.3803 24.9661 37.5607L24.7769 37.6533C24.1785 37.917 23.5036 37.9657 22.8712 37.7896C22.1576 37.5909 21.5543 37.1218 21.2023 36.4991L20.5249 35.3532L20.4348 35.1834C19.8179 33.9078 20.3014 32.3743 21.5286 31.6795L21.6405 31.6108C21.9683 31.3885 22.1649 31.022 22.1649 30.6301C22.1649 30.2038 21.9328 29.81 21.5268 29.5795L21.3621 29.476C20.1776 28.669 19.8157 27.1022 20.5495 25.855L21.2395 24.7441C22.007 23.4391 23.7077 22.9889 25.0157 23.7239L25.1573 23.7978C25.3017 23.8627 25.4585 23.8972 25.6095 23.8988C26.2752 23.8988 26.8176 23.3751 26.8276 22.7037L26.8367 22.4975C26.8912 21.8592 27.1739 21.2593 27.6361 20.8043C28.1576 20.2909 28.8663 20.0023 29.6055 20.0023H30.9181ZM30.9184 21.541H29.6055C29.2841 21.541 28.9759 21.6664 28.7492 21.8896C28.5483 22.0875 28.4253 22.3483 28.4038 22.5919L28.3895 22.9159C28.2795 24.3287 27.0747 25.4375 25.6012 25.4373C25.2214 25.4335 24.847 25.3512 24.4651 25.1783L24.2607 25.0727C23.6782 24.7457 22.9354 24.9423 22.5907 25.528L21.9007 26.6389C21.5845 27.1765 21.7426 27.8612 22.2322 28.1955L22.5093 28.3674C23.2724 28.8729 23.7353 29.7192 23.7353 30.6301C23.7353 31.5276 23.2853 32.3667 22.5074 32.8934L22.3418 32.9954C21.7968 33.3043 21.5865 33.9714 21.8398 34.4968L21.8996 34.61L22.5683 35.7403C22.7254 36.0179 22.9889 36.2228 23.3005 36.3096C23.5767 36.3865 23.8715 36.3652 24.1015 36.2647L24.217 36.2093C24.8548 35.8446 25.6149 35.7447 26.3283 35.9317C27.0416 36.1188 27.6492 36.5773 28.0096 37.1946C28.2034 37.5147 28.3261 37.8709 28.3736 38.2804L28.395 38.6562C28.4611 39.2539 28.9779 39.7192 29.6055 39.7192H30.9184C31.5532 39.7192 32.0805 39.241 32.1301 38.6552L32.1361 38.5393C32.1325 37.8128 32.4255 37.115 32.9498 36.6013C33.4742 36.0875 34.1864 35.8005 34.9452 35.8042C35.3174 35.814 35.6838 35.8957 36.0584 36.0609L36.3942 36.2289C36.9212 36.4556 37.5464 36.2902 37.8633 35.8448L37.9403 35.7268L38.6252 34.6087C38.787 34.3365 38.8315 34.0123 38.7486 33.7079C38.6752 33.4381 38.5068 33.2027 38.3027 33.0618L38.0133 32.8826C37.46 32.5162 37.0578 31.9652 36.8846 31.3287C36.6941 30.6286 36.7962 29.883 37.1656 29.2619C37.3678 28.916 37.6457 28.6186 38.0081 28.372L38.1789 28.2666C38.7231 27.9547 38.9332 27.2877 38.6817 26.7603L38.6066 26.6184L38.5931 26.5886L37.9716 25.531C37.6777 25.0311 37.066 24.8151 36.5469 24.9858L36.429 25.0321L36.3193 25.0868C35.6836 25.4537 34.925 25.5578 34.2108 25.3762C33.4966 25.1945 32.8855 24.7419 32.5144 24.1218C32.3205 23.8018 32.1978 23.4456 32.1503 23.0361L32.1364 22.7682C32.1458 22.4459 32.0217 22.1336 31.7923 21.9024C31.563 21.6712 31.2478 21.541 30.9184 21.541ZM30.2668 27.1567C32.2247 27.1567 33.8119 28.7118 33.8119 30.6301C33.8119 32.5483 32.2247 34.1034 30.2668 34.1034C28.3088 34.1034 26.7216 32.5483 26.7216 30.6301C26.7216 28.7118 28.3088 27.1567 30.2668 27.1567ZM30.2668 28.6953C29.1762 28.6953 28.292 29.5615 28.292 30.6301C28.292 31.6986 29.1762 32.5648 30.2668 32.5648C31.3574 32.5648 32.2415 31.6986 32.2415 30.6301C32.2415 29.5615 31.3574 28.6953 30.2668 28.6953Z" fill="#65B0F6"/>
</svg>
